<?xml version="1.0" encoding="UTF-8" standalone="no"?>
<!-- Created with Inkscape (http://www.inkscape.org/) -->

<svg
   width="64"
   height="64"
   viewBox="0 0 64 64"
   version="1.1"
   id="svg5"
   xml:space="preserve"
   sodipodi:docname="cornerne.svg"
   inkscape:version="1.3 (0e150ed6c4, 2023-07-21)"
   xmlns:inkscape="http://www.inkscape.org/namespaces/inkscape"
   xmlns:sodipodi="http://sodipodi.sourceforge.net/DTD/sodipodi-0.dtd"
   xmlns="http://www.w3.org/2000/svg"
   xmlns:svg="http://www.w3.org/2000/svg"><sodipodi:namedview
     id="namedview7"
     pagecolor="#505050"
     bordercolor="#ffffff"
     borderopacity="1"
     inkscape:showpageshadow="0"
     inkscape:pageopacity="0"
     inkscape:pagecheckerboard="1"
     inkscape:deskcolor="#505050"
     inkscape:document-units="px"
     showgrid="false"
     inkscape:zoom="11.313708"
     inkscape:cx="35.929865"
     inkscape:cy="39.818952"
     inkscape:window-width="2556"
     inkscape:window-height="1392"
     inkscape:window-x="1920"
     inkscape:window-y="44"
     inkscape:window-maximized="1"
     inkscape:current-layer="layer1"
     showguides="false" /><defs
     id="defs2"><inkscape:path-effect
       effect="fillet_chamfer"
       id="path-effect8"
       is_visible="true"
       lpeversion="1"
       nodesatellites_param="F,0,0,1,0,3.8171475,0,1 @ F,0,0,1,0,3.8171475,0,1 @ F,0,0,1,0,3.8171475,0,1 @ F,0,0,1,0,3.8171475,0,1"
       radius="0"
       unit="px"
       method="auto"
       mode="F"
       chamfer_steps="1"
       flexible="false"
       use_knot_distance="true"
       apply_no_radius="true"
       apply_with_radius="true"
       only_selected="false"
       hide_knots="false" /><inkscape:path-effect
       effect="fillet_chamfer"
       id="path-effect7"
       is_visible="true"
       lpeversion="1"
       nodesatellites_param="F,0,0,1,0,4.8395481,0,1 @ F,0,0,1,0,4.8395481,0,1 @ F,0,0,1,0,4.8395481,0,1 @ F,0,0,1,0,4.8395481,0,1"
       radius="0"
       unit="px"
       method="auto"
       mode="F"
       chamfer_steps="1"
       flexible="false"
       use_knot_distance="true"
       apply_no_radius="true"
       apply_with_radius="true"
       only_selected="false"
       hide_knots="false" /><inkscape:path-effect
       effect="fillet_chamfer"
       id="path-effect6"
       is_visible="true"
       lpeversion="1"
       nodesatellites_param="F,0,0,1,0,4,0,1 @ F,0,0,1,0,4,0,1 @ F,0,0,1,0,4,0,1 @ F,0,0,1,0,4,0,1"
       radius="0"
       unit="px"
       method="auto"
       mode="F"
       chamfer_steps="1"
       flexible="false"
       use_knot_distance="true"
       apply_no_radius="true"
       apply_with_radius="true"
       only_selected="false"
       hide_knots="false" /><inkscape:path-effect
       effect="fillet_chamfer"
       id="path-effect5"
       is_visible="true"
       lpeversion="1"
       nodesatellites_param="F,0,0,1,0,0,0,1 @ F,0,0,1,0,0,0,1 @ F,0,0,1,0,0,0,1 @ F,0,0,1,0,0,0,1"
       radius="0"
       unit="px"
       method="auto"
       mode="F"
       chamfer_steps="1"
       flexible="false"
       use_knot_distance="true"
       apply_no_radius="true"
       apply_with_radius="true"
       only_selected="false"
       hide_knots="false" /><inkscape:path-effect
       effect="fillet_chamfer"
       id="path-effect4"
       is_visible="true"
       lpeversion="1"
       nodesatellites_param="F,0,0,1,0,4,0,1 @ F,0,0,1,0,4,0,1 @ F,0,0,1,0,4,0,1 @ F,0,0,1,0,4,0,1"
       radius="0"
       unit="px"
       method="auto"
       mode="F"
       chamfer_steps="1"
       flexible="false"
       use_knot_distance="true"
       apply_no_radius="true"
       apply_with_radius="true"
       only_selected="false"
       hide_knots="false" /><inkscape:path-effect
       effect="fillet_chamfer"
       id="path-effect3"
       is_visible="true"
       lpeversion="1"
       nodesatellites_param="F,0,0,1,0,4,0,1 @ F,0,0,1,0,4,0,1 @ F,0,0,1,0,4,0,1 @ F,0,0,1,0,4,0,1"
       radius="0"
       unit="px"
       method="auto"
       mode="F"
       chamfer_steps="1"
       flexible="false"
       use_knot_distance="true"
       apply_no_radius="true"
       apply_with_radius="true"
       only_selected="false"
       hide_knots="false" /><inkscape:path-effect
       effect="fillet_chamfer"
       id="path-effect1"
       is_visible="true"
       lpeversion="1"
       nodesatellites_param="F,0,0,1,0,7.2000003,0,1 @ F,0,0,1,0,7.2000003,0,1 @ F,0,0,1,0,7.2000003,0,1 @ F,0,0,1,0,7.2000003,0,1"
       radius="0"
       unit="px"
       method="auto"
       mode="F"
       chamfer_steps="1"
       flexible="false"
       use_knot_distance="true"
       apply_no_radius="true"
       apply_with_radius="true"
       only_selected="false"
       hide_knots="false" /></defs><g
     inkscape:label="Capa 1"
     inkscape:groupmode="layer"
     id="layer1"><path
       style="fill:#55b8e2;fill-opacity:1;stroke:#55b8e2;stroke-width:0;stroke-miterlimit:34.1;stroke-dasharray:none;stroke-opacity:1;paint-order:stroke fill markers"
       id="rect300"
       width="36"
       height="36"
       x="-60"
       y="-40"
       rx="7.2000003"
       ry="3.2142854"
       transform="scale(-1)"
       inkscape:path-effect="#path-effect1"
       sodipodi:type="rect"
       d="m -52.8,-40 h 21.6 a 7.2000003,7.2000003 45 0 1 7.2,7.2 v 21.6 a 7.2000003,7.2000003 135 0 1 -7.2,7.2 h -21.6 a 7.2000003,7.2000003 45 0 1 -7.2,-7.2 v -21.6 a 7.2000003,7.2000003 135 0 1 7.2,-7.2 z" /><path
       style="fill:#f2f0fd;fill-opacity:1;stroke:#f2f0fd;stroke-width:0;stroke-miterlimit:34.1;stroke-dasharray:none;stroke-opacity:1;paint-order:stroke fill markers"
       id="rect300-3"
       width="15.999999"
       height="15.999999"
       x="24"
       y="-20.000002"
       rx="4"
       ry="2.3703704"
       transform="rotate(90)"
       inkscape:path-effect="#path-effect4"
       sodipodi:type="rect"
       d="m 28,-20.000002 h 7.999999 a 4,4 45 0 1 4,4 v 7.9999991 a 4,4 135 0 1 -4,4 H 28 a 4,4 45 0 1 -4,-4 v -7.9999991 a 4,4 135 0 1 4,-4 z" /><path
       style="fill:#f2f0fd;fill-opacity:1;stroke:#55b8e2;stroke-width:0;stroke-miterlimit:34.1;stroke-dasharray:none;stroke-opacity:1;paint-order:stroke fill markers"
       id="rect300-3-6"
       width="15.999999"
       height="15.999999"
       x="4.0000019"
       y="-20.000002"
       rx="4"
       ry="2.3703704"
       transform="rotate(90)"
       inkscape:path-effect="#path-effect3"
       sodipodi:type="rect"
       d="m 8.0000019,-20.000002 h 7.9999991 a 4,4 45 0 1 4,4 v 7.9999991 a 4,4 135 0 1 -4,4 H 8.0000019 a 4,4 45 0 1 -4,-4 v -7.9999991 a 4,4 135 0 1 4,-4 z" /><path
       style="fill:#61d6c6;fill-opacity:1;stroke:#55b8e2;stroke-width:0;stroke-miterlimit:34.1;stroke-dasharray:none;stroke-opacity:1;paint-order:stroke fill markers"
       id="rect300-3-7"
       width="15.999999"
       height="15.999999"
       x="44"
       y="-20.000002"
       rx="4"
       ry="2.3703704"
       transform="rotate(90)"
       inkscape:path-effect="#path-effect6"
       sodipodi:type="rect"
       d="m 48,-20.000002 h 7.999999 a 4,4 45 0 1 4,4 v 7.9999991 a 4,4 135 0 1 -4,4 H 48 a 4,4 45 0 1 -4,-4 v -7.9999991 a 4,4 135 0 1 4,-4 z" /><path
       style="fill:#f2f0fd;fill-opacity:1;stroke:#f2f0fd;stroke-width:0;stroke-linecap:round;stroke-linejoin:round;stroke-dasharray:none;stroke-opacity:1"
       id="rect6"
       width="15.999999"
       height="15.999999"
       x="24"
       y="44"
       rx="3.8171475"
       ry="2.3731201"
       inkscape:path-effect="#path-effect8"
       sodipodi:type="rect"
       d="m 27.817147,44 h 8.365705 a 3.8171475,3.8171475 45 0 1 3.817147,3.817148 v 8.365704 a 3.8171475,3.8171475 135 0 1 -3.817147,3.817147 H 27.817148 A 3.8171475,3.8171475 45 0 1 24,56.182852 V 47.817147 A 3.8171475,3.8171475 135 0 1 27.817147,44 Z" /><path
       style="fill:#f2f0fd;fill-opacity:1;stroke:#f2f0fd;stroke-width:0;stroke-linecap:round;stroke-linejoin:round;stroke-dasharray:none;stroke-opacity:1"
       id="rect7"
       width="15.999999"
       height="15.999999"
       x="44"
       y="44"
       rx="4.8395481"
       ry="2.526067"
       inkscape:path-effect="#path-effect7"
       sodipodi:type="rect"
       d="m 48.839548,44 h 6.320903 a 4.8395481,4.8395481 45 0 1 4.839548,4.839548 v 6.320903 a 4.8395481,4.8395481 135 0 1 -4.839548,4.839548 H 48.839548 A 4.8395481,4.8395481 45 0 1 44,55.160451 V 48.839548 A 4.8395481,4.8395481 135 0 1 48.839548,44 Z" /></g></svg>
