<?xml version="1.0" encoding="UTF-8" standalone="no"?>
<!-- Created with Inkscape (http://www.inkscape.org/) -->

<svg
   width="64"
   height="64"
   viewBox="0 0 64 64"
   version="1.1"
   id="svg5"
   xml:space="preserve"
   sodipodi:docname="fairv.svg"
   inkscape:version="1.3 (0e150ed6c4, 2023-07-21)"
   xmlns:inkscape="http://www.inkscape.org/namespaces/inkscape"
   xmlns:sodipodi="http://sodipodi.sourceforge.net/DTD/sodipodi-0.dtd"
   xmlns="http://www.w3.org/2000/svg"
   xmlns:svg="http://www.w3.org/2000/svg"><sodipodi:namedview
     id="namedview7"
     pagecolor="#505050"
     bordercolor="#ffffff"
     borderopacity="1"
     inkscape:showpageshadow="0"
     inkscape:pageopacity="0"
     inkscape:pagecheckerboard="1"
     inkscape:deskcolor="#505050"
     inkscape:document-units="px"
     showgrid="false"
     inkscape:zoom="16"
     inkscape:cx="27.03125"
     inkscape:cy="34.96875"
     inkscape:window-width="2556"
     inkscape:window-height="1392"
     inkscape:window-x="1920"
     inkscape:window-y="44"
     inkscape:window-maximized="1"
     inkscape:current-layer="layer1" /><defs
     id="defs2"><inkscape:path-effect
       effect="fillet_chamfer"
       id="path-effect6"
       is_visible="true"
       lpeversion="1"
       nodesatellites_param="F,0,0,1,0,3.2,0,1 @ F,0,0,1,0,3.2,0,1 @ F,0,0,1,0,3.2,0,1 @ F,0,0,1,0,3.2,0,1"
       radius="0"
       unit="px"
       method="auto"
       mode="F"
       chamfer_steps="1"
       flexible="false"
       use_knot_distance="true"
       apply_no_radius="true"
       apply_with_radius="true"
       only_selected="false"
       hide_knots="false" /><inkscape:path-effect
       effect="fillet_chamfer"
       id="path-effect5"
       is_visible="true"
       lpeversion="1"
       nodesatellites_param="F,0,0,1,0,3.2,0,1 @ F,0,0,1,0,3.2,0,1 @ F,0,0,1,0,3.2,0,1 @ F,0,0,1,0,3.2,0,1"
       radius="0"
       unit="px"
       method="auto"
       mode="F"
       chamfer_steps="1"
       flexible="false"
       use_knot_distance="true"
       apply_no_radius="true"
       apply_with_radius="true"
       only_selected="false"
       hide_knots="false" /><inkscape:path-effect
       effect="fillet_chamfer"
       id="path-effect4"
       is_visible="true"
       lpeversion="1"
       nodesatellites_param="F,0,0,1,0,3.2,0,1 @ F,0,0,1,0,3.2,0,1 @ F,0,0,1,0,3.2,0,1 @ F,0,0,1,0,3.2,0,1"
       radius="0"
       unit="px"
       method="auto"
       mode="F"
       chamfer_steps="1"
       flexible="false"
       use_knot_distance="true"
       apply_no_radius="true"
       apply_with_radius="true"
       only_selected="false"
       hide_knots="false" /><inkscape:path-effect
       effect="fillet_chamfer"
       id="path-effect3"
       is_visible="true"
       lpeversion="1"
       nodesatellites_param="F,0,0,1,0,3.2,0,1 @ F,0,0,1,0,3.2,0,1 @ F,0,0,1,0,3.2,0,1 @ F,0,0,1,0,3.2,0,1"
       radius="0"
       unit="px"
       method="auto"
       mode="F"
       chamfer_steps="1"
       flexible="false"
       use_knot_distance="true"
       apply_no_radius="true"
       apply_with_radius="true"
       only_selected="false"
       hide_knots="false" /><inkscape:path-effect
       effect="fillet_chamfer"
       id="path-effect2"
       is_visible="true"
       lpeversion="1"
       nodesatellites_param="F,0,0,1,0,3.2,0,1 @ F,0,0,1,0,3.2,0,1 @ F,0,0,1,0,3.2,0,1 @ F,0,0,1,0,3.2,0,1"
       radius="0"
       unit="px"
       method="auto"
       mode="F"
       chamfer_steps="1"
       flexible="false"
       use_knot_distance="true"
       apply_no_radius="true"
       apply_with_radius="true"
       only_selected="false"
       hide_knots="false" /><inkscape:path-effect
       effect="fillet_chamfer"
       id="path-effect1"
       is_visible="true"
       lpeversion="1"
       nodesatellites_param="F,0,0,1,0,3.2,0,1 @ F,0,0,1,0,3.2,0,1 @ F,0,0,1,0,3.2,0,1 @ F,0,0,1,0,3.2,0,1"
       radius="0"
       unit="px"
       method="auto"
       mode="F"
       chamfer_steps="1"
       flexible="false"
       use_knot_distance="true"
       apply_no_radius="true"
       apply_with_radius="true"
       only_selected="false"
       hide_knots="false" /></defs><g
     inkscape:label="Capa 1"
     inkscape:groupmode="layer"
     id="layer1"><path
       style="fill:#55b8e2;fill-opacity:1;stroke:#55b8e2;stroke-width:0;stroke-miterlimit:34.1;stroke-dasharray:none;stroke-opacity:1;paint-order:stroke fill markers"
       id="rect300"
       width="15.999999"
       height="26"
       x="4.000001"
       y="4"
       rx="3.2"
       ry="2.3214285"
       inkscape:path-effect="#path-effect1"
       sodipodi:type="rect"
       d="M 7.200001,4 H 16.8 A 3.2,3.2 45 0 1 20,7.2 V 26.8 A 3.2,3.2 135 0 1 16.8,30 H 7.200001 a 3.2,3.2 45 0 1 -3.2,-3.2 V 7.2 a 3.2,3.2 135 0 1 3.2,-3.2 z"
       transform="matrix(0,1,1,0,9.0734863e-7,-1e-6)" /><path
       style="fill:#f2f0fd;fill-opacity:1;stroke:#55b8e2;stroke-width:0;stroke-miterlimit:34.1;stroke-dasharray:none;stroke-opacity:1;paint-order:stroke fill markers"
       id="rect300-7"
       width="15.999999"
       height="25.999998"
       x="4.0000005"
       y="34"
       rx="3.2"
       ry="2.3214285"
       inkscape:path-effect="#path-effect4"
       sodipodi:type="rect"
       d="M 7.2000005,34 H 16.8 a 3.2,3.2 45 0 1 3.2,3.2 v 19.599998 a 3.2,3.2 135 0 1 -3.2,3.2 l -9.5999995,0 a 3.2,3.2 45 0 1 -3.2,-3.2 V 37.2 a 3.2,3.2 135 0 1 3.2,-3.2 z"
       transform="matrix(0,1,1,0,9.0734863e-7,-1e-6)" /><path
       style="fill:#f2f0fd;fill-opacity:1;stroke:#55b8e2;stroke-width:0;stroke-miterlimit:34.1;stroke-dasharray:none;stroke-opacity:1;paint-order:stroke fill markers"
       id="rect300-5"
       width="15.999999"
       height="26"
       x="24"
       y="4.0000005"
       rx="3.2"
       ry="2.3214285"
       inkscape:path-effect="#path-effect2"
       sodipodi:type="rect"
       d="m 27.2,4.0000005 h 9.599999 a 3.2,3.2 45 0 1 3.2,3.2 V 26.8 a 3.2,3.2 135 0 1 -3.2,3.2 H 27.2 A 3.2,3.2 45 0 1 24,26.8 V 7.2000005 a 3.2,3.2 135 0 1 3.2,-3.2 z"
       transform="matrix(0,1,1,0,9.0734863e-7,-1e-6)" /><path
       style="fill:#f2f0fd;fill-opacity:1;stroke:#55b8e2;stroke-width:0;stroke-miterlimit:34.1;stroke-dasharray:none;stroke-opacity:1;paint-order:stroke fill markers"
       id="rect300-7-3"
       width="15.999999"
       height="25.999998"
       x="24"
       y="34"
       rx="3.2"
       ry="2.3214285"
       inkscape:path-effect="#path-effect5"
       sodipodi:type="rect"
       d="m 27.2,34 h 9.599999 a 3.2,3.2 45 0 1 3.2,3.2 v 19.599998 a 3.2,3.2 135 0 1 -3.2,3.2 l -9.599999,0 a 3.2,3.2 45 0 1 -3.2,-3.2 V 37.2 A 3.2,3.2 135 0 1 27.2,34 Z"
       transform="matrix(0,1,1,0,9.0734863e-7,-1e-6)" /><path
       style="fill:#f2f0fd;fill-opacity:1;stroke:#55b8e2;stroke-width:0;stroke-miterlimit:34.1;stroke-dasharray:none;stroke-opacity:1;paint-order:stroke fill markers"
       id="rect300-56"
       width="15.999999"
       height="26"
       x="44"
       y="4.0000005"
       rx="3.2"
       ry="2.3214285"
       inkscape:path-effect="#path-effect3"
       sodipodi:type="rect"
       d="m 47.2,4.0000005 h 9.599999 a 3.2,3.2 45 0 1 3.2,3.2 V 26.8 a 3.2,3.2 135 0 1 -3.2,3.2 H 47.2 A 3.2,3.2 45 0 1 44,26.8 V 7.2000005 a 3.2,3.2 135 0 1 3.2,-3.2 z"
       transform="matrix(0,1,1,0,9.0734863e-7,-1e-6)" /><path
       style="fill:#61d6c6;fill-opacity:1;stroke:#55b8e2;stroke-width:0;stroke-miterlimit:34.1;stroke-dasharray:none;stroke-opacity:1;paint-order:stroke fill markers"
       id="rect300-7-2"
       width="15.999999"
       height="25.999998"
       x="44"
       y="34"
       rx="3.2"
       ry="2.3214285"
       inkscape:path-effect="#path-effect6"
       sodipodi:type="rect"
       d="m 47.2,34 h 9.599999 a 3.2,3.2 45 0 1 3.2,3.2 v 19.599998 a 3.2,3.2 135 0 1 -3.2,3.2 l -9.599999,0 a 3.2,3.2 45 0 1 -3.2,-3.2 L 44,37.2 A 3.2,3.2 135 0 1 47.2,34 Z"
       transform="matrix(0,1,1,0,9.0734863e-7,-1e-6)" /></g></svg>
